<?xml version="1.0" encoding="UTF-8" standalone="no"?>
<!-- Created with Inkscape (http://www.inkscape.org/) -->

<svg
   xmlns:dc="http://purl.org/dc/elements/1.1/"
   xmlns:cc="http://creativecommons.org/ns#"
   xmlns:rdf="http://www.w3.org/1999/02/22-rdf-syntax-ns#"
   xmlns:svg="http://www.w3.org/2000/svg"
   xmlns="http://www.w3.org/2000/svg"
   xmlns:sodipodi="http://sodipodi.sourceforge.net/DTD/sodipodi-0.dtd"
   xmlns:inkscape="http://www.inkscape.org/namespaces/inkscape"
   width="150mm"
   height="150mm"
   viewBox="0 0 150 150"
   version="1.1"
   id="svg4627"
   inkscape:version="0.92.4 (5da689c313, 2019-01-14)"
   sodipodi:docname="BirthdayBuddy_icon_status_bar.svg">
  <defs
     id="defs4621" />
  <sodipodi:namedview
     id="base"
     pagecolor="#ffffff"
     bordercolor="#666666"
     borderopacity="1.0"
     inkscape:pageopacity="0.0"
     inkscape:pageshadow="2"
     inkscape:zoom="0.7"
     inkscape:cx="241.59016"
     inkscape:cy="126.60817"
     inkscape:document-units="mm"
     inkscape:current-layer="g5224"
     showgrid="false"
     inkscape:snap-bbox="false"
     inkscape:pagecheckerboard="true"
     inkscape:window-width="1920"
     inkscape:window-height="1027"
     inkscape:window-x="1912"
     inkscape:window-y="-8"
     inkscape:window-maximized="1" />
  <metadata
     id="metadata4624">
    <rdf:RDF>
      <cc:Work
         rdf:about="">
        <dc:format>image/svg+xml</dc:format>
        <dc:type
           rdf:resource="http://purl.org/dc/dcmitype/StillImage" />
        <dc:title></dc:title>
      </cc:Work>
    </rdf:RDF>
  </metadata>
  <g
     inkscape:groupmode="layer"
     id="layer3"
     inkscape:label="Ebene 2"
     transform="translate(0,-147)" />
  <g
     inkscape:label="Ebene 1"
     inkscape:groupmode="layer"
     id="layer1"
     transform="translate(0,-147)">
    <g
       id="g5224"
       transform="matrix(1.0058699,0,0,0.99792117,-24.903918,128.3881)">
      <rect
         y="52.003162"
         x="54.051594"
         height="24.751711"
         width="5.8079453"
         id="rect6867"
         style="opacity:1;fill:none;fill-opacity:1;stroke:#ffffff;stroke-width:7.69037724;stroke-linecap:butt;stroke-linejoin:round;stroke-miterlimit:4;stroke-dasharray:none;stroke-dashoffset:0;stroke-opacity:1;paint-order:normal" />
      <rect
         y="51.987427"
         x="98.20015"
         height="24.751711"
         width="5.8079453"
         id="rect6867-9"
         style="opacity:1;fill:none;fill-opacity:1;stroke:#ffffff;stroke-width:7.69037724;stroke-linecap:butt;stroke-linejoin:round;stroke-miterlimit:4;stroke-dasharray:none;stroke-dashoffset:0;stroke-opacity:1;paint-order:normal" />
      <rect
         y="51.987427"
         x="142.69241"
         height="24.751711"
         width="5.8079453"
         id="rect6867-92"
         style="opacity:1;fill:none;fill-opacity:1;stroke:#ffffff;stroke-width:7.69037724;stroke-linecap:butt;stroke-linejoin:round;stroke-miterlimit:4;stroke-dasharray:none;stroke-dashoffset:0;stroke-opacity:1;paint-order:normal" />
      <rect
         y="85.609314"
         x="37.554405"
         height="75.560356"
         width="125.65813"
         id="rect5085"
         style="opacity:1;fill:#ffffff;fill-opacity:1;stroke:#ffffff;stroke-width:10.1275301;stroke-linecap:round;stroke-linejoin:round;stroke-miterlimit:0;stroke-dasharray:none;stroke-dashoffset:0;stroke-opacity:1;paint-order:normal" />
      <path
         sodipodi:nodetypes="sssssasssassccs"
         inkscape:connector-curvature="0"
         id="path6865"
         d="m 166.52358,78.848725 c 2.25792,2.348606 6.06709,17.436071 1.26346,23.290845 -3.21536,3.9189 -5.83599,8.03725 -14.39567,1.8105 -4.61983,-3.36074 -9.25509,-7.722147 -17.90242,-1.0188 -4.5757,3.54706 -8.81577,8.21437 -14.41386,3.86694 -3.4958,-2.71489 -7.58598,-7.265019 -12.30921,-7.79352 -3.91257,-0.437784 -8.74138,0.725931 -11.192377,4.06265 -9.128388,12.42722 -16.821022,38.41911 -36.992441,0.94136 -2.146287,-3.98773 -7.241169,-4.06638 -12.773553,-2.537 -2.175725,0.60145 -4.299906,1.63486 -6.55509,1.69844 -2.700775,0.0762 -4.630674,0.5055 -7.950776,-1.58865 -5.890561,-3.715468 -5.788008,-22.028067 -1.143615,-24.363922 5.565543,-2.799142 32.286872,-0.116541 54.391479,-0.327096 17.850283,-0.363402 48.338023,-1.097936 65.927723,-0.604705 8.60569,-0.218916 13.16898,1.650352 14.04635,2.562958 z"
         style="fill:#ffffff;fill-opacity:1;stroke:#ffffff;stroke-width:5.12225723;stroke-linecap:butt;stroke-linejoin:round;stroke-miterlimit:4;stroke-dasharray:none;stroke-opacity:1;paint-order:normal" />
      <path
         sodipodi:nodetypes="caaaaac"
         inkscape:connector-curvature="0"
         id="path6881-6"
         d="m 100.7684,21.864422 c 0,0 6.78082,8.116991 7.46247,13.131739 0.29138,2.143679 -0.19861,4.644158 -1.57184,6.290716 -1.35731,1.627406 -3.66683,2.574211 -5.75808,2.548825 -2.106646,-0.02665 -4.303036,-1.131146 -5.739289,-2.707669 -1.450977,-1.592707 -2.457978,-3.941153 -2.258989,-6.108619 0.46989,-5.117519 7.865728,-13.154992 7.865728,-13.154992 z"
         style="fill:#ffffff;fill-opacity:1;stroke:none;stroke-width:4.15690327;stroke-linecap:round;stroke-linejoin:round;stroke-miterlimit:4;stroke-dasharray:none;stroke-opacity:1;paint-order:normal" />
      <path
         sodipodi:nodetypes="caaaaac"
         inkscape:connector-curvature="0"
         id="path6881-6-8"
         d="m 145.29211,21.847929 c 0,0 6.78084,8.116991 7.4625,13.131741 0.29136,2.14368 -0.1986,4.644157 -1.57183,6.290719 -1.35734,1.627417 -3.66683,2.574223 -5.75809,2.548823 -2.10666,-0.02665 -4.30305,-1.131148 -5.73927,-2.707685 -1.45099,-1.59269 -2.458,-3.941135 -2.25899,-6.108605 0.46988,-5.117518 7.86568,-13.154993 7.86568,-13.154993 z"
         style="fill:#ffffff;fill-opacity:1;stroke:none;stroke-width:4.15690327;stroke-linecap:round;stroke-linejoin:round;stroke-miterlimit:4;stroke-dasharray:none;stroke-opacity:1;paint-order:normal" />
      <path
         sodipodi:nodetypes="caaaaac"
         inkscape:connector-curvature="0"
         id="path6881-6-3"
         d="m 56.57559,21.907479 c 0,0 6.780825,8.116994 7.462489,13.131741 0.291358,2.143682 -0.198595,4.644155 -1.571833,6.290717 -1.357318,1.627417 -3.666841,2.574223 -5.758087,2.548838 -2.106666,-0.02665 -4.30304,-1.13116 -5.739284,-2.707684 -1.450977,-1.592706 -2.457983,-3.941154 -2.259002,-6.108618 0.469897,-5.117519 7.865717,-13.154994 7.865717,-13.154994 z"
         style="fill:#ffffff;fill-opacity:1;stroke:none;stroke-width:4.15690327;stroke-linecap:round;stroke-linejoin:round;stroke-miterlimit:4;stroke-dasharray:none;stroke-opacity:1;paint-order:normal" />
    </g>
  </g>
</svg>
