<?xml version="1.0" encoding="UTF-8" standalone="no"?>
<!-- Created with Inkscape (http://www.inkscape.org/) -->

<svg
   xmlns:osb="http://www.openswatchbook.org/uri/2009/osb"
   xmlns:dc="http://purl.org/dc/elements/1.1/"
   xmlns:cc="http://creativecommons.org/ns#"
   xmlns:rdf="http://www.w3.org/1999/02/22-rdf-syntax-ns#"
   xmlns:svg="http://www.w3.org/2000/svg"
   xmlns="http://www.w3.org/2000/svg"
   xmlns:sodipodi="http://sodipodi.sourceforge.net/DTD/sodipodi-0.dtd"
   xmlns:inkscape="http://www.inkscape.org/namespaces/inkscape"
   width="55mm"
   height="55mm"
   viewBox="0 0 55 55"
   version="1.1"
   id="svg8"
   inkscape:version="0.92.4 (5da689c313, 2019-01-14)"
   sodipodi:docname="BirthdayBuddy_icon.svg">
  <defs
     id="defs2">
    <linearGradient
       id="linearGradient5367"
       osb:paint="solid">
      <stop
         style="stop-color:#000000;stop-opacity:1;"
         offset="0"
         id="stop5365" />
    </linearGradient>
  </defs>
  <sodipodi:namedview
     id="base"
     pagecolor="#ffffff"
     bordercolor="#666666"
     borderopacity="1.0"
     inkscape:pageopacity="0.0"
     inkscape:pageshadow="2"
     inkscape:zoom="3.0574074"
     inkscape:cx="115.23999"
     inkscape:cy="95.616285"
     inkscape:document-units="mm"
     inkscape:current-layer="layer2"
     showgrid="false"
     inkscape:window-width="1920"
     inkscape:window-height="1027"
     inkscape:window-x="1912"
     inkscape:window-y="-8"
     inkscape:window-maximized="1"
     inkscape:snap-grids="true"
     inkscape:snap-to-guides="false"
     inkscape:object-paths="false"
     fit-margin-bottom="0" />
  <metadata
     id="metadata5">
    <rdf:RDF>
      <cc:Work
         rdf:about="">
        <dc:format>image/svg+xml</dc:format>
        <dc:type
           rdf:resource="http://purl.org/dc/dcmitype/StillImage" />
        <dc:title></dc:title>
      </cc:Work>
    </rdf:RDF>
  </metadata>
  <g
     inkscape:groupmode="layer"
     id="layer2"
     inkscape:label="Ebene 2"
     transform="translate(0,-242)">
    <rect
       style="opacity:1;fill:#e3e6e8;fill-opacity:1;stroke:#e3e6e8;stroke-width:2.8772192;stroke-linecap:butt;stroke-linejoin:round;stroke-miterlimit:4;stroke-dasharray:none;stroke-dashoffset:0;stroke-opacity:1;paint-order:normal"
       id="rect6867"
       width="2.1729407"
       height="9.260417"
       x="10.565149"
       y="254.07332" />
    <rect
       style="opacity:1;fill:#e3e6e8;fill-opacity:1;stroke:#e3e6e8;stroke-width:2.8772192;stroke-linecap:butt;stroke-linejoin:round;stroke-miterlimit:4;stroke-dasharray:none;stroke-dashoffset:0;stroke-opacity:1;paint-order:normal"
       id="rect6867-9"
       width="2.1729407"
       height="9.260417"
       x="27.08255"
       y="254.06743" />
    <rect
       style="opacity:1;fill:#e3e6e8;fill-opacity:1;stroke:#e3e6e8;stroke-width:2.8772192;stroke-linecap:butt;stroke-linejoin:round;stroke-miterlimit:4;stroke-dasharray:none;stroke-dashoffset:0;stroke-opacity:1;paint-order:normal"
       id="rect6867-92"
       width="2.1729407"
       height="9.260417"
       x="43.728554"
       y="254.06743" />
  </g>
  <g
     inkscape:label="Ebene 1"
     inkscape:groupmode="layer"
     id="layer1"
     transform="translate(0,-242)">
    <rect
       style="opacity:1;fill:#e3e6e8;fill-opacity:1;stroke:#e3e6e8;stroke-width:3.78929877;stroke-linecap:square;stroke-linejoin:round;stroke-miterlimit:0;stroke-dasharray:none;stroke-dashoffset:0;stroke-opacity:1;paint-order:stroke fill markers"
       id="rect5085"
       width="47.012783"
       height="28.269581"
       x="4.3930092"
       y="266.64645" />
    <path
       style="fill:#879baa;fill-opacity:1;stroke:#879baa;stroke-width:1.91640258;stroke-linecap:butt;stroke-linejoin:round;stroke-miterlimit:4;stroke-dasharray:none;stroke-opacity:1;paint-order:normal"
       d="m 52.644566,264.11712 c 0.844752,0.87869 2.26989,6.5234 0.472695,8.71385 -1.202967,1.4662 -2.183435,3.00701 -5.385893,0.67737 -1.728428,-1.25736 -3.462622,-2.8891 -6.697873,-0.38116 -1.711916,1.32707 -3.298276,3.07326 -5.39269,1.44674 -1.307893,-1.01572 -2.838164,-2.71807 -4.605269,-2.9158 -1.463831,-0.16379 -3.247272,0.28923 -4.18744,1.51997 -3.584235,4.69201 -10.236692,15.6718 -13.840069,0.35219 -0.295128,-1.25472 -1.48503,-2.03489 -2.828465,-1.46852 -1.1003562,0.4639 -2.0235343,0.75027 -3.0781149,0.85802 -1.4297806,0.14608 -3.0573774,0.48589 -4.2995362,-0.2976 -2.20384835,-1.39007 -2.16548169,-8.24141 -0.4278622,-9.11533 2.0822489,-1.04725 12.0795643,-0.0436 20.3496173,-0.12238 6.678361,-0.13596 18.084817,-0.41077 24.665702,-0.22624 3.219666,-0.0819 4.926941,0.61745 5.255198,0.95889 z"
       id="path6865"
       inkscape:connector-curvature="0"
       sodipodi:nodetypes="sssssasssassccs" />
    <path
       style="fill:#cf3f5c;fill-opacity:1;stroke:none;stroke-width:1.55523252;stroke-linecap:round;stroke-linejoin:round;stroke-miterlimit:4;stroke-dasharray:none;stroke-opacity:1;paint-order:normal"
       d="m 28.043404,242.79744 c 0,0 2.536928,3.03683 2.791959,4.91301 0.109007,0.80202 -0.0743,1.73753 -0.588074,2.35356 -0.507817,0.60887 -1.371883,0.9631 -2.154284,0.9536 -0.788174,-0.01 -1.60991,-0.4232 -2.147255,-1.01303 -0.542858,-0.59588 -0.919609,-1.47451 -0.845163,-2.28543 0.175803,-1.91463 2.942817,-4.92171 2.942817,-4.92171 z"
       id="path6881-6"
       inkscape:connector-curvature="0"
       sodipodi:nodetypes="caaaaac" />
    <path
       style="fill:#cf3f5c;fill-opacity:1;stroke:none;stroke-width:1.55523252;stroke-linecap:round;stroke-linejoin:round;stroke-miterlimit:4;stroke-dasharray:none;stroke-opacity:1;paint-order:normal"
       d="m 44.701181,242.79127 c 0,0 2.536928,3.03683 2.79196,4.91301 0.109007,0.80202 -0.0743,1.73753 -0.588075,2.35356 -0.507817,0.60887 -1.371883,0.9631 -2.154284,0.9536 -0.788173,-0.01 -1.609909,-0.4232 -2.147254,-1.01303 -0.542858,-0.59588 -0.919609,-1.47451 -0.845164,-2.28543 0.175803,-1.91463 2.942817,-4.92171 2.942817,-4.92171 z"
       id="path6881-6-8"
       inkscape:connector-curvature="0"
       sodipodi:nodetypes="caaaaac" />
    <path
       style="fill:#cf3f5c;fill-opacity:1;stroke:none;stroke-width:1.55523252;stroke-linecap:round;stroke-linejoin:round;stroke-miterlimit:4;stroke-dasharray:none;stroke-opacity:1;paint-order:normal"
       d="m 11.509449,242.81355 c 0,0 2.536927,3.03683 2.791959,4.91301 0.109007,0.80202 -0.0743,1.73753 -0.588073,2.35356 -0.507817,0.60887 -1.371884,0.9631 -2.154287,0.9536 -0.788172,-0.01 -1.6099069,-0.4232 -2.1472525,-1.01303 -0.5428576,-0.59588 -0.91961,-1.47451 -0.845165,-2.28543 0.175803,-1.91463 2.9428185,-4.92171 2.9428185,-4.92171 z"
       id="path6881-6-3"
       inkscape:connector-curvature="0"
       sodipodi:nodetypes="caaaaac" />
  </g>
</svg>
