<?xml version="1.0" encoding="UTF-8" standalone="no"?>
<!-- Created with Inkscape (http://www.inkscape.org/) -->

<svg
   xmlns:dc="http://purl.org/dc/elements/1.1/"
   xmlns:cc="http://creativecommons.org/ns#"
   xmlns:rdf="http://www.w3.org/1999/02/22-rdf-syntax-ns#"
   xmlns:svg="http://www.w3.org/2000/svg"
   xmlns="http://www.w3.org/2000/svg"
   xmlns:sodipodi="http://sodipodi.sourceforge.net/DTD/sodipodi-0.dtd"
   xmlns:inkscape="http://www.inkscape.org/namespaces/inkscape"
   width="155mm"
   height="150mm"
   viewBox="0 0 155 150"
   version="1.1"
   id="svg4627"
   inkscape:version="0.92.4 (5da689c313, 2019-01-14)"
   sodipodi:docname="BirthdayBuddy_icon_2.svg">
  <defs
     id="defs4621" />
  <sodipodi:namedview
     id="base"
     pagecolor="#ffffff"
     bordercolor="#666666"
     borderopacity="1.0"
     inkscape:pageopacity="0.0"
     inkscape:pageshadow="2"
     inkscape:zoom="0.49497475"
     inkscape:cx="117.88631"
     inkscape:cy="247.72249"
     inkscape:document-units="mm"
     inkscape:current-layer="layer1"
     showgrid="false"
     inkscape:snap-bbox="false"
     inkscape:pagecheckerboard="true"
     inkscape:window-width="1920"
     inkscape:window-height="1027"
     inkscape:window-x="1912"
     inkscape:window-y="-8"
     inkscape:window-maximized="1" />
  <metadata
     id="metadata4624">
    <rdf:RDF>
      <cc:Work
         rdf:about="">
        <dc:format>image/svg+xml</dc:format>
        <dc:type
           rdf:resource="http://purl.org/dc/dcmitype/StillImage" />
        <dc:title />
      </cc:Work>
    </rdf:RDF>
  </metadata>
  <g
     inkscape:groupmode="layer"
     id="layer3"
     inkscape:label="Ebene 2"
     transform="translate(0,-147)">
    <ellipse
       style="opacity:1;fill:#879baa;fill-opacity:1;stroke:#879baa;stroke-width:3;stroke-linecap:round;stroke-linejoin:round;stroke-miterlimit:4;stroke-dasharray:none;stroke-dashoffset:0;stroke-opacity:1;paint-order:normal"
       id="path5212"
       cx="77.775429"
       cy="222.43179"
       rx="75.102737"
       ry="72.964577" />
  </g>
  <g
     inkscape:label="Ebene 1"
     inkscape:groupmode="layer"
     id="layer1"
     transform="translate(0,-147)">
    <g
       id="g5224"
       transform="matrix(1.0058699,0,0,0.99792117,-24.903918,128.3881)">
      <rect
         y="66.814171"
         x="74.487282"
         height="14.524445"
         width="3.4081357"
         id="rect6867"
         style="opacity:1;fill:none;fill-opacity:1;stroke:#ffffff;stroke-width:4.5127573;stroke-linecap:butt;stroke-linejoin:round;stroke-miterlimit:4;stroke-dasharray:none;stroke-dashoffset:0;stroke-opacity:1;paint-order:normal" />
      <rect
         y="66.804939"
         x="100.39391"
         height="14.524445"
         width="3.4081357"
         id="rect6867-9"
         style="opacity:1;fill:none;fill-opacity:1;stroke:#ffffff;stroke-width:4.5127573;stroke-linecap:butt;stroke-linejoin:round;stroke-miterlimit:4;stroke-dasharray:none;stroke-dashoffset:0;stroke-opacity:1;paint-order:normal" />
      <rect
         y="66.804939"
         x="126.50223"
         height="14.524445"
         width="3.4081357"
         id="rect6867-92"
         style="opacity:1;fill:none;fill-opacity:1;stroke:#ffffff;stroke-width:4.5127573;stroke-linecap:butt;stroke-linejoin:round;stroke-miterlimit:4;stroke-dasharray:none;stroke-dashoffset:0;stroke-opacity:1;paint-order:normal" />
      <rect
         y="86.534447"
         x="64.806641"
         height="44.339252"
         width="73.736916"
         id="rect5085"
         style="opacity:1;fill:#ffffff;fill-opacity:1;stroke:#ffffff;stroke-width:5.94289255;stroke-linecap:round;stroke-linejoin:round;stroke-miterlimit:0;stroke-dasharray:none;stroke-dashoffset:0;stroke-opacity:1;paint-order:normal" />
      <path
         sodipodi:nodetypes="sssssasssassccs"
         inkscape:connector-curvature="0"
         id="path6865"
         d="m 140.48649,82.5673 c 1.32496,1.378175 3.56021,10.231589 0.74141,13.667196 -1.88679,2.299645 -3.4246,4.716314 -8.44747,1.062418 -2.71094,-1.972103 -5.43094,-4.531404 -10.50524,-0.59783 -2.68505,2.081423 -5.17315,4.820236 -8.45813,2.269133 -2.05136,-1.593107 -4.4515,-4.263153 -7.22312,-4.573282 -2.29592,-0.256894 -5.1295,0.42598 -6.56775,2.383988 -5.35659,7.292367 -9.870671,22.544557 -21.707379,0.552392 -1.259453,-2.340017 -4.249159,-2.386174 -7.495594,-1.488729 -1.276728,0.352938 -2.523209,0.959356 -3.846564,0.996657 -1.58483,0.04467 -2.717306,0.296631 -4.665561,-0.93223 -3.456615,-2.180252 -3.396436,-12.926192 -0.67108,-14.296885 3.265892,-1.642553 18.946121,-0.06839 31.917234,-0.191942 10.474644,-0.213246 28.365034,-0.644275 38.686764,-0.354844 5.04987,-0.128462 7.72763,0.968436 8.24248,1.503958 z"
         style="fill:#cf3f5c;fill-opacity:1;stroke:#cf3f5c;stroke-width:3.00576997;stroke-linecap:butt;stroke-linejoin:round;stroke-miterlimit:4;stroke-dasharray:none;stroke-opacity:1;paint-order:normal" />
      <path
         sodipodi:nodetypes="caaaaac"
         inkscape:connector-curvature="0"
         id="path6881-6"
         d="m 101.90097,49.128584 c 0,0 3.97902,4.763097 4.37902,7.70578 0.17098,1.257923 -0.11654,2.725218 -0.92236,3.691429 -0.79648,0.95497 -2.15172,1.510561 -3.37888,1.495664 -1.23619,-0.01564 -2.525041,-0.663763 -3.367845,-1.588875 -0.851443,-0.93461 -1.442355,-2.312691 -1.32559,-3.584573 0.275737,-3.002989 4.615655,-7.719425 4.615655,-7.719425 z"
         style="fill:#cf3f5c;fill-opacity:1;stroke:none;stroke-width:2.43929482;stroke-linecap:round;stroke-linejoin:round;stroke-miterlimit:4;stroke-dasharray:none;stroke-opacity:1;paint-order:normal" />
      <path
         sodipodi:nodetypes="caaaaac"
         inkscape:connector-curvature="0"
         id="path6881-6-8"
         d="m 128.02774,49.118906 c 0,0 3.97903,4.763097 4.37904,7.705781 0.17097,1.257923 -0.11654,2.725218 -0.92236,3.69143 -0.79649,0.954977 -2.15172,1.510569 -3.37888,1.495663 -1.2362,-0.01564 -2.52505,-0.663763 -3.36784,-1.588884 -0.85144,-0.9346 -1.44236,-2.312681 -1.32559,-3.584565 0.27573,-3.002988 4.61563,-7.719425 4.61563,-7.719425 z"
         style="fill:#cf3f5c;fill-opacity:1;stroke:none;stroke-width:2.43929482;stroke-linecap:round;stroke-linejoin:round;stroke-miterlimit:4;stroke-dasharray:none;stroke-opacity:1;paint-order:normal" />
      <path
         sodipodi:nodetypes="caaaaac"
         inkscape:connector-curvature="0"
         id="path6881-6-3"
         d="m 75.968377,49.15385 c 0,0 3.979027,4.763099 4.379032,7.705781 0.17097,1.257925 -0.116537,2.725217 -0.922361,3.691429 -0.796482,0.954978 -2.151723,1.510569 -3.378878,1.495672 -1.236204,-0.01564 -2.525049,-0.663771 -3.367845,-1.588883 -0.851442,-0.93461 -1.442358,-2.312692 -1.325595,-3.584573 0.275738,-3.002989 4.615647,-7.719426 4.615647,-7.719426 z"
         style="fill:#cf3f5c;fill-opacity:1;stroke:none;stroke-width:2.43929482;stroke-linecap:round;stroke-linejoin:round;stroke-miterlimit:4;stroke-dasharray:none;stroke-opacity:1;paint-order:normal" />
    </g>
  </g>
</svg>
