<?xml version="1.0" encoding="UTF-8" standalone="no"?>
<svg
   xmlns:dc="http://purl.org/dc/elements/1.1/"
   xmlns:cc="http://creativecommons.org/ns#"
   xmlns:rdf="http://www.w3.org/1999/02/22-rdf-syntax-ns#"
   xmlns:svg="http://www.w3.org/2000/svg"
   xmlns="http://www.w3.org/2000/svg"
   id="svg869"
   version="1.1"
   viewBox="0 0 18 18"
   height="18"
   width="18">
  <metadata
     id="metadata875">
    <rdf:RDF>
      <cc:Work
         rdf:about="">
        <dc:format>image/svg+xml</dc:format>
        <dc:type
           rdf:resource="http://purl.org/dc/dcmitype/StillImage" />
        <dc:title></dc:title>
      </cc:Work>
    </rdf:RDF>
  </metadata>
  <defs
     id="defs873" />
  <path
     id="path867"
     d="M9 1C4.58 1 1 4.58 1 9s3.58 8 8 8 8-3.58 8-8-3.58-8-8-8zm0 2.75c1.24 0 2.25 1.01 2.25 2.25S10.24 8.25 9 8.25 6.75 7.24 6.75 6 7.76 3.75 9 3.75zM9 14.5c-1.86 0-3.49-.92-4.49-2.33C4.62 10.72 7.53 10 9 10c1.47 0 4.38.72 4.49 2.17-1 1.41-2.63 2.33-4.49 2.33z" />
  <path
     style="stroke-width:0.3623412"
     d="M 9.6666859,10.42363 V 9.3366056 H 10.391369 V 10.42363 h 1.087023 v 0.724681 h -1.087023 v 1.087024 H 9.6666859 V 11.148311 H 8.5796617 V 10.42363 Z m 1.0870231,2.174047 v -1.087024 h 1.087024 V 10.42363 h 2.536388 l 0.663085,0.724681 h 1.148621 c 0.398576,0 0.724683,0.326108 0.724683,0.724683 v 4.348094 c 0,0.398576 -0.326107,0.724683 -0.724683,0.724683 h -5.797458 c -0.3985768,0 -0.7246831,-0.326107 -0.7246831,-0.724683 v -3.623411 z m 2.53639,3.26107 c 1.00006,0 1.811705,-0.811644 1.811705,-1.811706 0,-1.000062 -0.811645,-1.811706 -1.811705,-1.811706 -1.000062,0 -1.811707,0.811644 -1.811707,1.811706 0,1.000062 0.811645,1.811706 1.811707,1.811706 z m -1.159494,-1.811706 c 0,0.641345 0.518149,1.159492 1.159494,1.159492 0.641343,0 1.159492,-0.518147 1.159492,-1.159492 0,-0.641343 -0.518149,-1.159492 -1.159492,-1.159492 -0.641345,0 -1.159494,0.518149 -1.159494,1.159492 z"
     id="path1430" />
  <path
     id="path1524"
     d="m 10.228426,16.920457 c -0.20072,-0.04858 -0.3858461,-0.197473 -0.4774919,-0.384019 -0.078221,-0.159226 -0.073248,-0.01836 -0.073248,-2.074519 v -1.860281 h 0.5435119 0.543512 v -0.543511 -0.543513 h 0.543512 0.543511 v -0.543511 -0.543512 l 1.259702,9.4e-5 1.259703,9.4e-5 0.331485,0.362247 0.331486,0.362248 0.608336,1.96e-4 c 0.686417,2.22e-4 0.702153,0.0017 0.863108,0.08048 0.180727,0.08847 0.327034,0.270019 0.382115,0.474159 0.01863,0.069 0.01986,0.215366 0.01986,2.343894 0,2.168045 -9.2e-4,2.27361 -0.02078,2.343895 -0.05769,0.204322 -0.202964,0.380757 -0.387027,0.470035 -0.162754,0.07895 0.09139,0.07322 -3.215606,0.07236 -2.540518,-6.5e-4 -2.99928,-0.0032 -3.055687,-0.01684 z m 3.414078,-1.090415 c 0.360264,-0.07341 0.665314,-0.23749 0.927747,-0.499042 0.354773,-0.353582 0.531834,-0.779891 0.532105,-1.281151 1.47e-4,-0.272149 -0.03854,-0.474617 -0.133909,-0.700882 -0.266911,-0.633221 -0.840543,-1.050289 -1.528756,-1.11151 -0.328444,-0.02922 -0.66659,0.03668 -0.970847,0.189206 -0.172336,0.08639 -0.317757,0.192655 -0.464249,0.339239 -0.142884,0.142972 -0.23037,0.260724 -0.317102,0.426806 -0.08165,0.156333 -0.132808,0.292643 -0.171281,0.456323 -0.03019,0.128454 -0.03193,0.150112 -0.03185,0.39631 1.04e-4,0.286622 0.01204,0.369201 0.08433,0.585073 0.21776,0.649969 0.799872,1.125463 1.494616,1.220867 0.120307,0.01652 0.453907,0.0042 0.579193,-0.02124 z"
     style="opacity:1;fill:#333333;fill-opacity:1;stroke:#333333;stroke-width:0;stroke-linecap:square;stroke-linejoin:round;stroke-miterlimit:4;stroke-dasharray:none;stroke-dashoffset:0;paint-order:stroke fill markers" />
  <path
     id="path1526"
     d="m 13.171022,15.193724 c -0.04974,-0.0054 -0.136366,-0.02292 -0.192494,-0.03895 -0.400082,-0.114276 -0.697671,-0.420385 -0.806579,-0.829677 -0.02526,-0.09493 -0.02924,-0.133046 -0.02924,-0.279748 0,-0.147722 0.004,-0.184598 0.03002,-0.283079 0.08699,-0.328154 0.310992,-0.601133 0.613172,-0.747224 0.194181,-0.09388 0.279405,-0.11294 0.503882,-0.112728 0.226368,2.14e-4 0.314796,0.0199 0.503879,0.112199 0.379884,0.185434 0.623503,0.554311 0.647143,0.979876 0.01819,0.327429 -0.119527,0.664097 -0.365962,0.894621 -0.241831,0.22622 -0.579108,0.339932 -0.903813,0.304717 z"
     style="opacity:1;fill:#333333;fill-opacity:1;stroke:#333333;stroke-width:0;stroke-linecap:square;stroke-linejoin:round;stroke-miterlimit:4;stroke-dasharray:none;stroke-dashoffset:0;paint-order:stroke fill markers" />
  <path
     id="path1528"
     d="M 9.677685,11.684462 V 11.140951 H 9.1341735 8.5906621 V 10.78427 10.427591 H 9.1341735 9.677685 V 9.8840797 9.3405669 h 0.35668 0.35668 v 0.5435128 0.5435113 h 0.543511 0.543512 v 0.356679 0.356681 h -0.543512 -0.543511 v 0.543511 0.543512 h -0.35668 -0.35668 z"
     style="opacity:1;fill:#333333;fill-opacity:1;stroke:#333333;stroke-width:0;stroke-linecap:square;stroke-linejoin:round;stroke-miterlimit:4;stroke-dasharray:none;stroke-dashoffset:0;paint-order:stroke fill markers" />
  <path
     id="path1552"
     d="m 13.322142,15.744463 c 0.587616,-0.376995 1.145292,-0.849268 1.629422,-1.37989 l 0.135431,-0.148438 -0.0097,0.07031 c -0.12158,0.882176 -0.895186,1.5625 -1.776741,1.5625 h -0.141281 z"
     style="opacity:1;fill:#000000;fill-opacity:1;stroke:#ffffff;stroke-width:0;stroke-linecap:square;stroke-linejoin:round;stroke-miterlimit:4;stroke-dasharray:none;stroke-dashoffset:0;paint-order:stroke fill markers" />
  <path
     id="path1554"
     d="M 10.248642,16.911667 C 10.06888,16.884823 9.8438758,16.705006 9.7500296,16.513191 9.7102046,16.431792 9.705734,16.403748 9.6943889,16.164158 9.687604,16.02087 9.6816613,15.163596 9.6811829,14.259104 l -8.698e-4,-1.644531 h 0.5468749 0.546875 v -0.546875 -0.546875 h 0.539063 0.539062 V 10.971502 10.42218 l 0.246094,0.01021 c 0.135351,0.0056 0.703125,0.01047 1.261719,0.0108 l 1.015625,5.96e-4 0.326995,0.358831 0.326995,0.358831 0.587067,1.19e-4 c 0.327989,6.5e-5 0.630891,0.0072 0.686371,0.01623 0.220874,0.03584 0.42473,0.195993 0.529939,0.41633 l 0.05826,0.122007 0.0044,2.257813 c 0.0028,1.454926 -0.0012,2.293855 -0.01126,2.35917 -0.0336,0.217242 -0.190957,0.421891 -0.406402,0.528538 l -0.11637,0.0576 -3.016442,0.0022 c -1.659043,0.0012 -3.052492,-0.0032 -3.096551,-0.0098 z m 3.49682,-1.099476 c 0.304273,-0.0784 0.559001,-0.220712 0.795021,-0.444157 0.248671,-0.235424 0.425084,-0.525773 0.510231,-0.839766 0.03956,-0.145898 0.0423,-0.1769 0.04268,-0.484008 3.65e-4,-0.291604 -0.0035,-0.342305 -0.03441,-0.455526 -0.14673,-0.536849 -0.515585,-0.974115 -1.014905,-1.203135 -0.169655,-0.07781 -0.44646,-0.145352 -0.632995,-0.154443 -0.188126,-0.02257 -0.384368,0.03217 -0.566909,0.04745 -0.129141,0.03261 -0.351361,0.118627 -0.351361,0.136005 -0.122305,0.0428 -0.244877,0.150262 -0.352318,0.21619 -0.278981,0.221992 -0.498137,0.555827 -0.609928,0.929089 -0.03628,0.121149 -0.04315,0.176868 -0.04955,0.402312 -0.0086,0.304386 0.009,0.455038 0.07738,0.659232 0.208164,0.621931 0.712839,1.065329 1.38754,1.219062 0.164293,0.03744 0.604946,0.02184 0.799524,-0.0283 z"
     style="opacity:1;fill:#000000;fill-opacity:1;stroke:#ffffff;stroke-width:0.40000001;stroke-linecap:square;stroke-linejoin:miter;stroke-miterlimit:4;stroke-dasharray:none;stroke-dashoffset:0;paint-order:stroke fill markers" />
  <path
     id="path1556"
     d="M 9.6803131,11.677073 V 11.130198 H 9.1412506 8.6021881 v -0.34375 -0.34375 H 9.1412506 9.6803131 V 9.8958228 9.3489478 h 0.3515629 0.351562 v 0.546875 0.5468752 h 0.546875 0.546875 v 0.34375 0.34375 h -0.546875 -0.546875 v 0.546875 0.546875 H 10.031876 9.6803131 Z"
     style="opacity:1;fill:#000000;fill-opacity:1;stroke:#ffffff;stroke-width:0.406;stroke-linecap:square;stroke-linejoin:miter;stroke-miterlimit:4;stroke-dasharray:none;stroke-dashoffset:0;paint-order:stroke fill markers" />
  <path
     id="path1558"
     d="m 13.133438,15.18192 c -0.257396,-0.04298 -0.489697,-0.16623 -0.666329,-0.353529 -0.128211,-0.135954 -0.210333,-0.271383 -0.267038,-0.440381 -0.03745,-0.111615 -0.04198,-0.148424 -0.04229,-0.34375 -3.22e-4,-0.199628 0.0035,-0.229676 0.04325,-0.34375 0.06214,-0.178152 0.154889,-0.326987 0.282667,-0.453578 0.12563,-0.124464 0.243719,-0.201344 0.423913,-0.275984 0.123501,-0.05116 0.12588,-0.05148 0.382087,-0.05129 0.255452,1.86e-4 0.259001,6.64e-4 0.387638,0.05217 0.340222,0.136217 0.586763,0.393089 0.699377,0.728686 0.06033,0.179789 0.07014,0.419211 0.02466,0.601876 -0.08914,0.358036 -0.353712,0.669029 -0.682986,0.802825 -0.173963,0.07069 -0.424353,0.103523 -0.584942,0.07671 z"
     style="opacity:1;fill:#000000;fill-opacity:1;stroke:#ffffff;stroke-width:0.406;stroke-linecap:square;stroke-linejoin:miter;stroke-miterlimit:4;stroke-dasharray:none;stroke-dashoffset:0;paint-order:stroke fill markers" />
  <path
     id="path1564"
     d="m 13.589046,15.570631 c 0.06263,-0.04407 0.0027,0.272979 -0.298295,0.200238 -0.455419,-0.110052 -1.329647,-0.515298 -1.520054,-0.8158 -0.494545,-0.780493 0.227558,-2.160756 0.446101,-2.378741 0.16947,-0.169037 1.680432,-0.311509 1.639208,-0.19779 -0.05006,0.138106 0.951007,0.529315 1.043431,1.023111 0.154527,0.825594 0.125826,1.437634 -0.09529,1.555646 -0.06572,0.03507 -0.335151,0.244418 -0.61086,0.453653 -0.295495,0.224251 -0.255702,0.282648 -0.322587,0.291959 -0.13321,0.01854 -0.40277,-0.04703 -0.281609,-0.132276 z"
     style="opacity:1;fill:#ffffff;fill-opacity:1;stroke:#ffffff;stroke-width:0.00317187;stroke-linecap:square;stroke-linejoin:miter;stroke-miterlimit:4;stroke-dasharray:none;stroke-dashoffset:0;paint-order:stroke fill markers" />
  <ellipse
     ry="1.342398"
     rx="1.3368738"
     cy="14.050146"
     cx="13.2693"
     id="path1590"
     style="opacity:1;fill:#000000;fill-opacity:1;stroke:#ffffff;stroke-width:0.40599999;stroke-linecap:square;stroke-linejoin:miter;stroke-miterlimit:4;stroke-dasharray:none;stroke-dashoffset:0;paint-order:stroke fill markers" />
</svg>
