<?xml version="1.0" encoding="UTF-8" standalone="no"?>
<svg
   xmlns:dc="http://purl.org/dc/elements/1.1/"
   xmlns:cc="http://creativecommons.org/ns#"
   xmlns:rdf="http://www.w3.org/1999/02/22-rdf-syntax-ns#"
   xmlns:svg="http://www.w3.org/2000/svg"
   xmlns="http://www.w3.org/2000/svg"
   xmlns:sodipodi="http://sodipodi.sourceforge.net/DTD/sodipodi-0.dtd"
   xmlns:inkscape="http://www.inkscape.org/namespaces/inkscape"
   width="24"
   height="24"
   viewBox="0 0 24 24"
   version="1.1"
   id="svg9493"
   sodipodi:docname="round-event-24px.svg"
   inkscape:version="0.92.4 (5da689c313, 2019-01-14)">
  <metadata
     id="metadata9499">
    <rdf:RDF>
      <cc:Work
         rdf:about="">
        <dc:format>image/svg+xml</dc:format>
        <dc:type
           rdf:resource="http://purl.org/dc/dcmitype/StillImage" />
      </cc:Work>
    </rdf:RDF>
  </metadata>
  <defs
     id="defs9497">
    <clipPath
       clipPathUnits="userSpaceOnUse"
       id="clipPath10080">
      <path
         style="fill:none;stroke:#000000;stroke-width:1px;stroke-linecap:butt;stroke-linejoin:miter;stroke-opacity:1"
         d="m 1.4745763,13.881356 h 7.0677966 1.9830511 v 8.745763 H 22.016949 V 1.0677966 H 1.7288136 Z"
         id="path10082"
         inkscape:connector-curvature="0" />
    </clipPath>
  </defs>
  <sodipodi:namedview
     pagecolor="#ffffff"
     bordercolor="#666666"
     borderopacity="1"
     objecttolerance="10"
     gridtolerance="10"
     guidetolerance="10"
     inkscape:pageopacity="0"
     inkscape:pageshadow="2"
     inkscape:window-width="1920"
     inkscape:window-height="1027"
     id="namedview9495"
     showgrid="false"
     inkscape:zoom="9.8333333"
     inkscape:cx="4.7135629"
     inkscape:cy="4.4328784"
     inkscape:window-x="1912"
     inkscape:window-y="-8"
     inkscape:window-maximized="1"
     inkscape:current-layer="svg9493" />
  <path
     fill="none"
     d="M0 0h24v24H0V0z"
     id="path9489" />
  <path
     d="m 16,13 h -3 c -0.55,0 -1,0.45 -1,1 v 3 c 0,0.55 0.45,1 1,1 h 3 c 0.55,0 1,-0.45 1,-1 v -3 c 0,-0.55 -0.45,-1 -1,-1 z M 16,3 V 4 H 8 V 3 C 8,2.45 7.55,2 7,2 6.45,2 6,2.45 6,3 V 4 H 5 C 3.89,4 3.01,4.9 3.01,6 L 3,20 c 0,1.1 0.89,2 2,2 h 14 c 1.1,0 2,-0.9 2,-2 V 6 C 21,4.9 20.1,4 19,4 H 18 V 3 C 18,2.45 17.55,2 17,2 16.45,2 16,2.45 16,3 Z m 2,17 H 6 C 5.45,20 5,19.55 5,19 V 9 h 14 v 10 c 0,0.55 -0.45,1 -1,1 z"
     id="path9491"
     clip-path="url(#clipPath10080)"
     inkscape:connector-curvature="0"
     transform="translate(2.3898305,-1.5254237)" />
  <g
     id="g10070"
     transform="matrix(0.64618644,0,0,0.64618644,-0.76271215,10.322034)">
    <path
       id="path10056"
       d="M 0,0 H 24 V 24 H 0 Z"
       inkscape:connector-curvature="0"
       style="fill:none" />
    <path
       id="path10058"
       d="m 17.157895,14.431579 h -5 v 5 c 0,0.55 -0.45,1 -1,1 -0.55,0 -1,-0.45 -1,-1 v -5 H 5.1578947 c -0.55,0 -1,-0.45 -1,-1 0,-0.55 0.45,-1 1,-1 H 10.157895 V 7.4315789 c 0,-0.55 0.45,-1 1,-1 0.55,0 1,0.45 1,1 v 5.0000001 h 5 c 0.55,0 1,0.45 1,1 0,0.55 -0.45,1 -1,1 z"
       inkscape:connector-curvature="0"
       style="stroke:#000000;stroke-width:1.15929818;stroke-miterlimit:4;stroke-dasharray:none;stroke-opacity:1" />
  </g>
</svg>
