<?xml version="1.0" encoding="UTF-8" standalone="no"?>
<svg
   xmlns:dc="http://purl.org/dc/elements/1.1/"
   xmlns:cc="http://creativecommons.org/ns#"
   xmlns:rdf="http://www.w3.org/1999/02/22-rdf-syntax-ns#"
   xmlns:svg="http://www.w3.org/2000/svg"
   xmlns="http://www.w3.org/2000/svg"
   xmlns:sodipodi="http://sodipodi.sourceforge.net/DTD/sodipodi-0.dtd"
   xmlns:inkscape="http://www.inkscape.org/namespaces/inkscape"
   width="24"
   height="24"
   viewBox="0 0 24 24"
   version="1.1"
   id="svg12408"
   sodipodi:docname="round-person-add.svg"
   inkscape:version="0.92.4 (5da689c313, 2019-01-14)">
  <metadata
     id="metadata12414">
    <rdf:RDF>
      <cc:Work
         rdf:about="">
        <dc:format>image/svg+xml</dc:format>
        <dc:type
           rdf:resource="http://purl.org/dc/dcmitype/StillImage" />
        <dc:title></dc:title>
      </cc:Work>
    </rdf:RDF>
  </metadata>
  <defs
     id="defs12412" />
  <sodipodi:namedview
     pagecolor="#ffffff"
     bordercolor="#666666"
     borderopacity="1"
     objecttolerance="10"
     gridtolerance="10"
     guidetolerance="10"
     inkscape:pageopacity="0"
     inkscape:pageshadow="2"
     inkscape:window-width="1920"
     inkscape:window-height="1027"
     id="namedview12410"
     showgrid="false"
     inkscape:zoom="9.8333333"
     inkscape:cx="12.679693"
     inkscape:cy="7.8533527"
     inkscape:window-x="1912"
     inkscape:window-y="-8"
     inkscape:window-maximized="1"
     inkscape:current-layer="svg12408" />
  <path
     d="M -1.0169492,-0.71186439 H 22.98305 V 23.288136 H -1.0169492 Z"
     id="path12404"
     inkscape:connector-curvature="0"
     style="fill:none" />
  <path
     d="m 14.506599,12.830132 c 2.21,0 4,-1.790001 4,-4.0000018 0,-2.2099997 -1.79,-3.9999997 -4,-3.9999997 -2.21,0 -3.999999,1.79 -3.999999,3.9999997 0,2.2100008 1.789999,4.0000018 3.999999,4.0000018 z m 0,2 c -2.67,0 -7.999999,1.34 -7.999999,4 v 1 c 0,0.55 0.45,1 1,1 h 13.999999 c 0.55,0 1,-0.45 1,-1 v -1 c 0,-2.66 -5.33,-4 -8,-4 z"
     id="path12406"
     inkscape:connector-curvature="0" />
  <g
     id="g12985"
     transform="matrix(0.57370083,0,0,0.57370083,-2.6111068,4.6313521)">
    <path
       id="path12971"
       d="M 0,0 H 24 V 24 H 0 Z"
       inkscape:connector-curvature="0"
       style="fill:none" />
    <path
       id="path12973"
       d="m 18,13 h -5 v 5 c 0,0.55 -0.45,1 -1,1 -0.55,0 -1,-0.45 -1,-1 V 13 H 6 C 5.45,13 5,12.55 5,12 5,11.45 5.45,11 6,11 h 5 V 6 c 0,-0.55 0.45,-1 1,-1 0.55,0 1,0.45 1,1 v 5 h 5 c 0.55,0 1,0.45 1,1 0,0.55 -0.45,1 -1,1 z"
       inkscape:connector-curvature="0"
       style="stroke:#000000;stroke-width:0;stroke-linejoin:bevel;stroke-miterlimit:4;stroke-dasharray:none;stroke-opacity:1" />
  </g>
</svg>
