<?xml version="1.0" encoding="UTF-8" standalone="no"?>
<svg
   xmlns:dc="http://purl.org/dc/elements/1.1/"
   xmlns:cc="http://creativecommons.org/ns#"
   xmlns:rdf="http://www.w3.org/1999/02/22-rdf-syntax-ns#"
   xmlns:svg="http://www.w3.org/2000/svg"
   xmlns="http://www.w3.org/2000/svg"
   xmlns:sodipodi="http://sodipodi.sourceforge.net/DTD/sodipodi-0.dtd"
   xmlns:inkscape="http://www.inkscape.org/namespaces/inkscape"
   width="21"
   height="24"
   viewBox="0 0 21 24"
   version="1.1"
   id="svg10651"
   sodipodi:docname="round-timer-add.svg"
   inkscape:version="0.92.4 (5da689c313, 2019-01-14)">
  <metadata
     id="metadata10657">
    <rdf:RDF>
      <cc:Work
         rdf:about="">
        <dc:format>image/svg+xml</dc:format>
        <dc:type
           rdf:resource="http://purl.org/dc/dcmitype/StillImage" />
        <dc:title></dc:title>
      </cc:Work>
    </rdf:RDF>
  </metadata>
  <defs
     id="defs10655">
    <clipPath
       clipPathUnits="userSpaceOnUse"
       id="clipPath11248">
      <path
         style="fill:none;stroke:#000000;stroke-width:1px;stroke-linecap:butt;stroke-linejoin:miter;stroke-opacity:1"
         d="m 1.0786375,13.213625 h 9.3481915 v 9.779647 H 22.291841 V 0.26997581 H 1.2224558 Z"
         id="path11250"
         inkscape:connector-curvature="0" />
    </clipPath>
  </defs>
  <sodipodi:namedview
     pagecolor="#ffffff"
     bordercolor="#666666"
     borderopacity="1"
     objecttolerance="10"
     gridtolerance="10"
     guidetolerance="10"
     inkscape:pageopacity="0"
     inkscape:pageshadow="2"
     inkscape:window-width="1920"
     inkscape:window-height="1027"
     id="namedview10653"
     showgrid="false"
     inkscape:zoom="13.906433"
     inkscape:cx="9.6073931"
     inkscape:cy="10.805646"
     inkscape:window-x="1912"
     inkscape:window-y="-8"
     inkscape:window-maximized="1"
     inkscape:current-layer="g11244" />
  <path
     d="M -3.6673674,0.57527331 H 20.332633 V 24.575273 H -3.6673674 Z"
     id="path10647"
     inkscape:connector-curvature="0"
     style="fill:none" />
  <path
     d="M 14,1 H 10 C 9.45,1 9,1.45 9,2 9,2.55 9.45,3 10,3 h 4 C 14.55,3 15,2.55 15,2 15,1.45 14.55,1 14,1 Z m -2,13 c 0.55,0 1,-0.45 1,-1 V 9 C 13,8.45 12.55,8 12,8 11.45,8 11,8.45 11,9 v 4 c 0,0.55 0.45,1 1,1 z m 7.03,-6.61 0.75,-0.75 c 0.38,-0.38 0.39,-1.01 0,-1.4 L 19.77,5.23 c -0.39,-0.39 -1.01,-0.38 -1.4,0 L 17.62,5.98 C 16.07,4.74 14.12,4 12,4 7.2,4 3.12,7.96 3,12.76 2.87,17.84 6.94,22 12,22 c 4.98,0 9,-4.03 9,-9 0,-2.12 -0.74,-4.07 -1.97,-5.61 z M 12,20 C 8.13,20 5,16.87 5,13 5,9.13 8.13,6 12,6 c 3.87,0 7,3.13 7,7 0,3.87 -3.13,7 -7,7 z"
     id="path10649"
     clip-path="url(#clipPath11248)"
     inkscape:connector-curvature="0"
     transform="translate(-0.68313697,-0.3955004)" />
  <g
     id="g11244"
     transform="matrix(0.79089304,0,0,0.79089304,-3.6398183,7.0747669)">
    <path
       id="path11230"
       d="M -1.8184296,0.72737182 H 22.18157 V 24.727372 H -1.8184296 Z"
       inkscape:connector-curvature="0"
       style="fill:none" />
    <path
       id="path11232"
       d="M 14.436852,15.843399 H 10.89924 v 3.867484 c 0,0.425424 -0.318385,0.773499 -0.707523,0.773499 -0.3891366,0 -0.7075216,-0.348075 -0.7075216,-0.773499 V 15.843399 H 5.946583 c -0.3891374,0 -0.7075226,-0.348074 -0.7075226,-0.773497 0,-0.425424 0.3183852,-0.773497 0.7075226,-0.773497 H 9.4841954 V 10.42892 c 0,-0.425423 0.318385,-0.7734969 0.7075216,-0.7734969 0.389138,0 0.707523,0.3480739 0.707523,0.7734969 v 3.867485 h 3.537612 c 0.389137,0 0.707523,0.348073 0.707523,0.773497 0,0.425423 -0.318386,0.773497 -0.707523,0.773497 z"
       inkscape:connector-curvature="0"
       style="fill:#000000;fill-opacity:1;stroke:#000000;stroke-width:0.48679149;stroke-linecap:butt;stroke-linejoin:bevel;stroke-miterlimit:4;stroke-dasharray:none;stroke-opacity:1;paint-order:fill markers stroke" />
  </g>
</svg>
